<mxfile host="app.diagrams.net" modified="2023-04-22T01:38:06.851Z" agent="Mozilla/5.0 (Macintosh; Intel Mac OS X 10_15_7) AppleWebKit/537.36 (KHTML, like Gecko) Chrome/112.0.0.0 Safari/537.36" version="21.2.1" etag="nGeu1YBNqdaMhI4N1u_J" type="github">
  <diagram name="Page-1" id="N3EUpo-yhUtFZWHERPZp">
    <mxGraphModel>
      <root>
        <mxCell id="0" />
        <mxCell id="1" parent="0" />
      </root>
    </mxGraphModel>
  </diagram>
</mxfile>
